<?xml version="1.0" encoding="UTF-8"?>
<svg version="1.1" xmlns="http://www.w3.org/2000/svg" width="150" height="150">
<path d="M0 0 C3.17079015 1.58539507 3.82692625 4.80411145 5.125 7.9375 C5.40214844 8.58396484 5.67929688 9.23042969 5.96484375 9.89648438 C8 14.72371459 8 14.72371459 8 17 C8.66 17 9.32 17 10 17 C10.18175781 16.43152344 10.36351563 15.86304687 10.55078125 15.27734375 C12.13942776 10.39734755 13.78050707 5.63198525 16 1 C18.73905345 -0.36952673 20.97087332 -0.12621361 24 0 C24.66 0.33 25.32 0.66 26 1 C26 8.26 26 15.52 26 23 C24.02 23 22.04 23 20 23 C19.67 19.04 19.34 15.08 19 11 C18.62488281 11.85464844 18.24976562 12.70929688 17.86328125 13.58984375 C17.09564453 15.24693359 17.09564453 15.24693359 16.3125 16.9375 C15.81363281 18.03964844 15.31476562 19.14179687 14.80078125 20.27734375 C13 23 13 23 10.48046875 23.94140625 C8 24 8 24 5 23 C3.39453125 20.05859375 3.39453125 20.05859375 1.8125 16.4375 C1.28269531 15.23996094 0.75289062 14.04242188 0.20703125 12.80859375 C-0.19128906 11.88175781 -0.58960938 10.95492187 -1 10 C-1.33 14.29 -1.66 18.58 -2 23 C-3.98 23 -5.96 23 -8 23 C-8 15.74 -8 8.48 -8 1 C-5.26094655 -0.36952673 -3.02912668 -0.12621361 0 0 Z " fill="#006089" transform="translate(10,83)"/>
<path d="M0 0 C4.02219051 0.29794004 6.73821115 1.52731054 10.375 3.25 C11.509375 3.683125 12.64375 4.11625 13.8125 4.5625 C24.11538234 9.44281269 29.52698814 16.4283128 33.625 26.9375 C35.94346046 32.35481774 38.87461137 34.44129564 44.0703125 37.03125 C46.32141024 38.22166101 47.77355012 39.28220537 49.375 41.25 C49.375 41.91 49.375 42.57 49.375 43.25 C47.395 43.91 45.415 44.57 43.375 45.25 C46.015 47.56 48.655 49.87 51.375 52.25 C50.88 53.24 50.88 53.24 50.375 54.25 C48.57594076 53.17898814 46.78596904 52.09270085 45 51 C44.00226563 50.39671875 43.00453125 49.7934375 41.9765625 49.171875 C39.4242897 47.28641221 38.45023113 46.17773776 37.375 43.25 C39.355 42.26 41.335 41.27 43.375 40.25 C42.7459375 40.0746875 42.116875 39.899375 41.46875 39.71875 C34.63250628 37.16545415 32.10567068 33.82833022 29.1875 27.4375 C28.86547607 26.72505127 28.54345215 26.01260254 28.21166992 25.27856445 C24.94851833 18.0770979 20.82788966 11.62154532 13.375 8.25 C11.10757683 7.43605322 8.8315088 6.67370479 6.53515625 5.9453125 C4.09793218 5.16081723 1.73571037 4.23997532 -0.625 3.25 C-0.31046875 3.806875 0.0040625 4.36375 0.328125 4.9375 C1.22666627 6.53971818 2.11395459 8.14827943 2.9921875 9.76171875 C3.82938814 11.26820692 4.70096945 12.75717607 5.6328125 14.20703125 C9.25028328 20.21506838 8.29346108 25.51129101 7.375 32.25 C7.375 33.24 7.375 34.23 7.375 35.25 C8.035 35.25 8.695 35.25 9.375 35.25 C9.87 32.28 9.87 32.28 10.375 29.25 C11.365 29.25 12.355 29.25 13.375 29.25 C13.86419922 30.26320313 13.86419922 30.26320313 14.36328125 31.296875 C14.80027344 32.18890625 15.23726562 33.0809375 15.6875 34 C16.11675781 34.88171875 16.54601562 35.7634375 16.98828125 36.671875 C18.27603146 39.06600215 19.68415754 41.12776958 21.375 43.25 C17.43826356 41.93775452 15.14780706 40.33089673 12.375 37.25 C12.045 37.91 11.715 38.57 11.375 39.25 C9 38.9375 9 38.9375 6.375 38.25 C3.9220428 34.57056421 4.35927178 33.26325399 4.6875 28.9375 C4.86661607 20.33992864 1.74266371 14.40375136 -2.625 7.25 C-2.955 6.92 -3.285 6.59 -3.625 6.25 C-3.75 3.75 -3.75 3.75 -3.625 1.25 C-2.625 0.25 -2.625 0.25 0 0 Z " fill="#006089" transform="translate(96.625,36.75)"/>
<path d="M0 0 C1.01707031 -0.02578125 2.03414062 -0.0515625 3.08203125 -0.078125 C6.66695073 0.30065895 9.07347936 1.48119904 12.1875 3.25 C12.21446009 6.0208983 12.23431952 8.7915345 12.25 11.5625 C12.25837891 12.34818359 12.26675781 13.13386719 12.27539062 13.94335938 C12.28022461 15.0793457 12.28022461 15.0793457 12.28515625 16.23828125 C12.29301147 17.28302612 12.29301147 17.28302612 12.30102539 18.34887695 C12.1875 20.25 12.1875 20.25 11.1875 23.25 C12.1775 23.91 13.1675 24.57 14.1875 25.25 C14.1875 25.91 14.1875 26.57 14.1875 27.25 C8.64495856 27.62790055 8.64495856 27.62790055 6.390625 25.765625 C2.70667389 23.23127565 -1.36573095 23.82878616 -5.71875 23.75390625 C-8.8125 23.25 -8.8125 23.25 -11.1875 21.65234375 C-13.38363611 18.40565215 -13.34550298 16.14435106 -13.3125 12.25 C-13.3228125 11.033125 -13.333125 9.81625 -13.34375 8.5625 C-12.72685095 4.71595299 -11.88288772 3.56391539 -8.8125 1.25 C-5.66880257 0.20210086 -3.30175899 0.04983787 0 0 Z M-5.8125 5.25 C-6.73265848 8.01047543 -7.00517245 9.88362269 -7.0625 12.75 C-7.08828125 13.5234375 -7.1140625 14.296875 -7.140625 15.09375 C-6.73349003 17.76920838 -5.96601348 18.65691895 -3.8125 20.25 C-1.64950789 20.02242269 -1.64950789 20.02242269 0.1875 19.25 C-0.8025 18.92 -1.7925 18.59 -2.8125 18.25 C-2.8125 17.59 -2.8125 16.93 -2.8125 16.25 C0.65691546 16.70822468 3.86145049 17.14131683 7.1875 18.25 C7.26832094 16.29233719 7.32660778 14.33373272 7.375 12.375 C7.40980469 11.28445312 7.44460937 10.19390625 7.48046875 9.0703125 C7.33544922 7.67425781 7.33544922 7.67425781 7.1875 6.25 C3.22220035 3.6064669 -1.3313431 3.00942155 -5.8125 5.25 Z " fill="#E48D00" transform="translate(102.8125,82.75)"/>
<path d="M0 0 C1.98 0 3.96 0 6 0 C6 3.96 6 7.92 6 12 C9.96 12.33 13.92 12.66 18 13 C18 8.71 18 4.42 18 0 C19.98 0 21.96 0 24 0 C24.11608726 3.27053517 24.18720711 6.5405418 24.25 9.8125 C24.30027344 11.2056543 24.30027344 11.2056543 24.3515625 12.62695312 C24.36445312 13.51962891 24.37734375 14.41230469 24.390625 15.33203125 C24.41157227 16.15421143 24.43251953 16.9763916 24.45410156 17.82348633 C24 20 24 20 22.2734375 21.7734375 C19.67653799 23.17451387 18.16604945 23.3493471 15.234375 23.29296875 C14.34492187 23.28330078 13.45546875 23.27363281 12.5390625 23.26367188 C11.61867188 23.23853516 10.69828125 23.21339844 9.75 23.1875 C8.81414063 23.17396484 7.87828125 23.16042969 6.9140625 23.14648438 C4.60878673 23.11119954 2.3046894 23.06190281 0 23 C0 21.68 0 20.36 0 19 C8.415 18.505 8.415 18.505 17 18 C17.33 17.34 17.66 16.68 18 16 C16.55367187 16.05220703 16.55367187 16.05220703 15.078125 16.10546875 C13.81484375 16.13253906 12.5515625 16.15960938 11.25 16.1875 C9.99703125 16.22230469 8.7440625 16.25710937 7.453125 16.29296875 C4 16 4 16 1.5625 14.90625 C-0.75313199 12.08117898 -0.3921191 9.90100739 -0.25 6.3125 C-0.21390625 5.13300781 -0.1778125 3.95351562 -0.140625 2.73828125 C-0.09421875 1.83464844 -0.0478125 0.93101563 0 0 Z " fill="#006089" transform="translate(39,90)"/>
<path d="M0 0 C0.78826172 0.01353516 1.57652344 0.02707031 2.38867188 0.04101562 C4.32191169 0.07616544 6.25479682 0.12996639 8.1875 0.1875 C8.1875 1.5075 8.1875 2.8275 8.1875 4.1875 C0.2675 4.6825 0.2675 4.6825 -7.8125 5.1875 C-7.8125 6.8375 -7.8125 8.4875 -7.8125 10.1875 C-6.99265625 10.15269531 -6.1728125 10.11789063 -5.328125 10.08203125 C-4.25046875 10.05496094 -3.1728125 10.02789062 -2.0625 10 C-0.99515625 9.96519531 0.0721875 9.93039063 1.171875 9.89453125 C4.5429844 10.2220354 5.88025725 10.73158051 8.1875 13.1875 C8.91258429 16.07070917 8.52388076 18.16007312 8.1875 21.1875 C5.03435215 23.28959857 4.32646919 23.4309761 0.73828125 23.3828125 C-0.53305664 23.37314453 -0.53305664 23.37314453 -1.83007812 23.36328125 C-2.71115234 23.34652344 -3.59222656 23.32976562 -4.5 23.3125 C-5.39267578 23.30347656 -6.28535156 23.29445313 -7.20507812 23.28515625 C-9.40782314 23.26159748 -11.61002588 23.22870329 -13.8125 23.1875 C-13.8125 21.8675 -13.8125 20.5475 -13.8125 19.1875 C-8.5325 19.1875 -3.2525 19.1875 2.1875 19.1875 C2.1875 17.5375 2.1875 15.8875 2.1875 14.1875 C1.53523438 14.22230469 0.88296875 14.25710937 0.2109375 14.29296875 C-5.29815372 14.46360432 -9.00488424 14.2238889 -13.8125 11.1875 C-14.30078125 5.23046875 -14.30078125 5.23046875 -13.8125 3.1875 C-9.62184347 -0.53752803 -5.28499536 -0.17277018 0 0 Z " fill="#E48E00" transform="translate(79.8125,82.8125)"/>
<path d="M0 0 C1.98 0 3.96 0 6 0 C6.33 5.94 6.66 11.88 7 18 C12.28 18.33 17.56 18.66 23 19 C23 20.32 23 21.64 23 23 C19.91698584 23.11644156 16.83453877 23.18732432 13.75 23.25 C12.44095703 23.30027344 12.44095703 23.30027344 11.10546875 23.3515625 C7.34044461 23.40904378 4.75355633 23.40855464 1.40625 21.59375 C-0.77926888 17.56268184 -0.42287599 13.75142491 -0.25 9.25 C-0.23195313 8.36183594 -0.21390625 7.47367187 -0.1953125 6.55859375 C-0.14827374 4.37129152 -0.08257009 2.18620184 0 0 Z " fill="#E48D00" transform="translate(117,83)"/>
<path d="M0 0 C0.99 0 1.98 0 3 0 C3.33 0.99 3.66 1.98 4 3 C3.01 3 2.02 3 1 3 C0.67 2.01 0.34 1.02 0 0 Z " fill="#006089" transform="translate(104,46)"/>
</svg>
