<?xml version="1.0" encoding="UTF-8"?>
<svg version="1.1" xmlns="http://www.w3.org/2000/svg" width="3125" height="3019">
<path d="M0 0 C17.59085703 3.448103 34.39837825 10.9577785 50.5 18.6875 C51.58974121 19.20932861 52.67948242 19.73115723 53.80224609 20.26879883 C59.97748526 23.30214106 65.75796895 26.67079276 71.51660156 30.4309082 C74.7726229 32.48816824 78.13640741 34.13301782 81.625 35.75 C89.89768293 39.74039998 97.47481817 44.6059879 105.09130859 49.71875 C106.78028448 50.85251125 108.47744465 51.97405945 110.17578125 53.09375 C124.31798068 62.43257723 138.19810734 72.16746023 152 82 C152.73508789 82.52352051 153.47017578 83.04704102 154.22753906 83.58642578 C164.70938296 91.06663006 175.04085219 98.72066141 185.21386719 106.61621094 C186.72288071 107.78530452 188.23951113 108.94455664 189.7578125 110.1015625 C206.52460966 123.10551409 220.94760907 138.95170585 235.00390625 154.76171875 C236.37328379 156.29724386 237.75693279 157.82012501 239.15234375 159.33203125 C250.81838826 172.02321149 260.91432002 186.04596222 271 200 C271.4846875 200.66725098 271.969375 201.33450195 272.46875 202.02197266 C281.21964883 214.13836277 288.64795076 227.00063292 296 240 C296.5170752 240.91023926 297.03415039 241.82047852 297.56689453 242.75830078 C323.2502977 288.17886822 341.9910635 336.97187187 353 388 C353.29245605 389.29260742 353.29245605 389.29260742 353.59082031 390.61132812 C370.04661404 463.6098221 366.76318194 541.43580422 350 614 C349.75056641 615.09086914 349.50113281 616.18173828 349.24414062 617.30566406 C342.64091102 645.67918152 332.84844477 673.40534475 321 700 C320.30438965 701.57418701 320.30438965 701.57418701 319.59472656 703.18017578 C309.23085424 726.52138856 296.98347032 748.4540957 283.68212891 770.23535156 C282.23469673 772.61426621 280.80620665 775.00280552 279.38671875 777.3984375 C269.35898949 794.13832612 256.80594955 809.25172131 244.41357422 824.27783203 C243.07840071 825.90448384 241.75710274 827.54117028 240.44140625 829.18359375 C236.7092641 833.82202337 232.93428898 838.21526166 228.65234375 842.3515625 C226.97986984 844.02008257 225.46303507 845.75924907 223.9375 847.5625 C216.5861975 856.07803592 208.43274215 864.11048386 199.84375 871.37109375 C197.68525715 873.2780673 195.6972958 875.31212861 193.6875 877.375 C189.66209938 881.44856781 185.39634 885.05883884 180.92578125 888.6328125 C178.40838676 890.66958294 175.95433693 892.76174487 173.51171875 894.88696289 C165.803785 901.56087637 157.62329744 907.492596 149.30078125 913.37255859 C147.04876719 914.96550487 144.80481518 916.56922017 142.5625 918.17578125 C110.4450424 941.12767778 74.80271746 960.5953309 38 975 C36.92733887 975.42055664 35.85467773 975.84111328 34.74951172 976.27441406 C-13.79704095 995.09762097 -64.30109311 1006.2917724 -116 1012 C-79.39044341 1022.31656936 -42.86780342 1028.81940643 -5 1032 C-3.9380542 1032.09716309 -2.8761084 1032.19432617 -1.78198242 1032.29443359 C9.5263792 1033.23941258 20.84618704 1033.24262283 32.1875 1033.25 C33.80513245 1033.25151062 33.80513245 1033.25151062 35.45544434 1033.25305176 C54.78685264 1033.24091474 73.80693095 1032.2564499 93 1030 C94.26102539 1029.85546387 95.52205078 1029.71092773 96.82128906 1029.56201172 C115.09823667 1027.41248271 133.05856234 1024.07231075 151 1020 C152.55146729 1019.64832764 152.55146729 1019.64832764 154.13427734 1019.28955078 C171.01683881 1015.39906622 187.54128606 1010.39168911 204 1005 C204.93956543 1004.69400879 205.87913086 1004.38801758 206.84716797 1004.07275391 C219.68618873 999.82660882 232.0252481 994.47860641 244.375 989 C245.13136749 988.66483368 245.88773499 988.32966736 246.66702271 987.98434448 C291.55435618 968.02770751 335.05434325 942.44256547 371.47265625 909.24609375 C374.06962393 906.93812402 376.73404013 904.74444137 379.4375 902.5625 C384.31526747 898.61745011 388.95501283 894.46257683 393.56640625 890.2109375 C395.42249877 888.52466404 397.28514597 886.92812069 399.25 885.375 C401.41846937 883.502231 403.1035804 881.78690018 404.9375 879.625 C408.52133693 875.40261751 412.43044937 871.56713172 416.375 867.6875 C421.44715746 862.66829296 426.22456647 857.59457036 430.64453125 851.98046875 C432.46408033 849.67812058 434.31099454 847.42083524 436.19921875 845.17578125 C444.64109472 835.1209882 452.47652292 824.75663142 460 814 C460.5347998 813.23961426 461.06959961 812.47922852 461.62060547 811.69580078 C470.2294545 799.42515235 478.29533158 786.85693471 486 774 C486.39606445 773.34064453 486.79212891 772.68128906 487.20019531 772.00195312 C520.16306544 716.60068082 540.57958765 654.57090092 550 591 C550.31701388 588.97515157 550.63465319 586.95040089 550.953125 584.92578125 C553.16320467 570.3602298 554.10026353 555.69623408 555 541 C555.99 541 556.98 541 558 541 C558.89632152 542.34775353 559.78347941 543.70215758 560.63427734 545.07910156 C563.63730887 549.30288634 567.61282144 552.76887653 571.3125 556.375 C576.55900922 561.51144259 581.69808389 566.64979292 586.47827148 572.2265625 C588.55185396 574.64313608 590.71443638 576.97370807 592.875 579.3125 C597.01803222 583.85040518 600.92380414 588.53144035 604.78125 593.3125 C606.97275268 595.9669962 609.24247683 598.52000885 611.5625 601.0625 C615.11321008 604.96766996 618.45393696 608.97920566 621.71875 613.125 C623.45115832 615.30830911 625.19966932 617.47172503 626.96875 619.625 C633.43604418 627.50141865 639.6966134 635.48805515 645.76953125 643.671875 C648.78158378 647.72572557 651.85321268 651.73215786 654.92895508 655.73779297 C662.0143061 664.97389006 668.886456 674.31759478 675.52246094 683.88085938 C677.00532845 686.00764225 678.50421763 688.12220517 680.0078125 690.234375 C697.07973795 714.28979316 713.41371101 738.95706468 729 764 C729.62777344 765.00611328 730.25554688 766.01222656 730.90234375 767.04882812 C749.04395597 796.17088985 766.11950589 825.91075639 782.42675781 856.09619141 C784.02269863 859.04189595 785.63202434 861.98001822 787.2421875 864.91796875 C804.60412546 896.77202136 820.87549818 929.30653471 835.55128479 962.48580933 C837.39052294 966.64352301 839.26628289 970.78276946 841.1640625 974.9140625 C882.30756011 1064.77810557 913.6557537 1159.6535772 973 1514 C973.07274164 1515.40250715 973.14549441 1516.80501372 973.21826172 1518.20751953 C978.26207156 1619.65900493 969.36893626 1722.79666385 922 1927 C921.61391571 1928.2752655 921.61391571 1928.2752655 921.22003174 1929.57629395 C894.87658493 2016.34580182 859.37989237 2101.53652159 812.63867188 2183.11669922 C810.96157249 2186.06761455 809.31279369 2189.03273288 807.671875 2192.00390625 C785.73807762 2231.68958303 761.01893068 2269.87744922 735 2307 C734.53851562 2307.66 734.07703125 2308.32 733.6015625 2309 C732.19759549 2311.00349887 730.78774728 2313.00268504 729.375 2315 C728.94815918 2315.60714844 728.52131836 2316.21429687 728.08154297 2316.83984375 C727.08001742 2318.24520358 726.04365625 2319.62563786 725 2321 C724.67 2321 724.34 2321 724 2321 C724.57551189 2307.55119575 725.33515368 2294.11919426 726.25146484 2280.68945312 C727.80464979 2256.9980426 728.20783016 2233.29957031 728.1875 2209.5625 C728.18723312 2208.8585976 728.18696625 2208.15469521 728.18669128 2207.42946243 C728.17476901 2182.24406025 727.70809679 2157.13480334 726 2132 C725.93683594 2131.06593323 725.87367188 2130.13186646 725.80859375 2129.16949463 C723.46519876 2042.29352199 723.46519876 2042.29352199 702 1960 C701.81002441 1961.09723389 701.62004883 1962.19446777 701.42431641 1963.32495117 C685.21152239 2056.51002392 659.87700438 2147.75034234 614.86077881 2253.07983398 C613.96241196 2255.08384881 613.06814896 2257.08966216 612.17431641 2259.09570312 C599.04412153 2288.51991088 585.04105224 2317.56601653 569.29101562 2345.68701172 C568.05001337 2347.91039586 566.82674768 2350.1425139 565.609375 2352.37890625 C550.04564908 2380.8774158 532.80028095 2408.41851097 514.8125 2435.4375 C514.31484131 2436.18587128 513.81718262 2436.93424255 513.30444336 2437.70529175 C503.86217484 2451.88682274 494.15411375 2465.87966283 484 2479.5625 C483.41806885 2480.34858643 482.8361377 2481.13467285 482.23657227 2481.94458008 C481.05604983 2483.53771542 479.87451901 2485.13010412 478.69189453 2486.72167969 C477.09153147 2488.8767429 475.49664065 2491.03576022 473.90234375 2493.1953125 C467.86018089 2501.3487235 461.59221732 2509.27947876 455.15625 2517.125 C452.19091262 2520.74689626 449.30793011 2524.42776969 446.4375 2528.125 C442.22119975 2533.54002968 437.83041929 2538.77848219 433.33520508 2543.96362305 C430.35771947 2547.40029646 427.46358246 2550.8840153 424.625 2554.4375 C419.77695638 2560.41793337 414.49643508 2565.96836196 409.21875 2571.56640625 C406.34484261 2574.6182925 403.56973662 2577.73971045 400.83203125 2580.9140625 C394.44181814 2588.18991282 387.8286551 2595.26571056 380.91845703 2602.04907227 C379.12461677 2603.87327403 377.4563477 2605.74918529 375.796875 2607.6953125 C371.90222416 2612.17459996 367.76965437 2616.37806654 363.5625 2620.5625 C362.49418945 2621.63661133 362.49418945 2621.63661133 361.40429688 2622.73242188 C357.36128853 2626.76808597 353.21258862 2630.6027822 348.88647461 2634.33178711 C345.95597094 2636.92323677 343.23290784 2639.70340866 340.5 2642.5 C336.50363714 2646.54151627 332.48114364 2650.4574455 328.14453125 2654.13671875 C325.83785189 2656.14088279 323.60714752 2658.21325907 321.37451172 2660.29907227 C315.96741082 2665.35013396 310.45262335 2670.15398067 304.6796875 2674.7890625 C301.86746685 2677.1093495 299.18202737 2679.53071134 296.5 2682 C291.17025607 2686.89374231 285.63229749 2691.46107316 280 2696 C278.78172437 2696.99768805 277.56432693 2697.99644911 276.34765625 2698.99609375 C267.42070622 2706.31748524 258.33815928 2713.40268805 249.13671875 2720.375 C247.01140946 2721.99132297 244.89500559 2723.61860422 242.78125 2725.25 C228.81703682 2736.01897071 214.52034268 2746.28022334 200.0625 2756.375 C199.12776855 2757.02895752 198.19303711 2757.68291504 197.22998047 2758.35668945 C190.92326902 2762.74078646 184.50974619 2766.92382588 178 2771 C177.67 2770.34 177.34 2769.68 177 2769 C177.3309668 2768.51869629 177.66193359 2768.03739258 178.00292969 2767.54150391 C202.20782762 2732.31696386 225.36525972 2696.44943137 246 2659 C246.52513184 2658.04738281 247.05026367 2657.09476563 247.59130859 2656.11328125 C291.09979887 2576.94447659 326.38565318 2493.70309389 380 2287 C376.17042184 2292.93332889 372.43272206 2298.85644627 369.0625 2305.0625 C356.37504992 2327.90885086 341.80916054 2349.60425245 327.18933105 2371.23974609 C326.11244351 2372.83357945 325.03708917 2374.42844846 323.96191406 2376.0234375 C304.54081852 2404.80168228 283.4306828 2432.31706471 261.47216797 2459.19580078 C260.17728489 2460.78273046 258.88709522 2462.37348737 257.59765625 2463.96484375 C249.33729588 2474.13718627 240.80979374 2484.07744554 232.00390625 2493.78125 C230.18688018 2495.79308393 228.40055608 2497.82660434 226.625 2499.875 C222.83958537 2504.2173492 218.94696877 2508.45926648 215.04052734 2512.69238281 C213.22885814 2514.65831271 211.43037832 2516.6332079 209.64233398 2518.62084961 C199.94113189 2529.32345399 189.67599499 2539.47648936 179.45361328 2549.67675781 C176.77207905 2552.35255899 174.09511204 2555.03287765 171.41942215 2557.71452141 C169.32955541 2559.80802391 167.23728563 2561.8991118 165.14431 2563.98950577 C164.15655242 2564.97660431 163.16951462 2565.96442374 162.18326569 2566.95302963 C157.17167631 2571.97398382 152.13375388 2576.89794499 146.73487854 2581.50323486 C143.62230062 2584.18860909 140.67047906 2587.04757871 137.6875 2589.875 C132.51449801 2594.74480356 127.23004154 2599.35778905 121.67578125 2603.79296875 C118.68502145 2606.25979982 115.83659624 2608.85992315 113 2611.5 C107.52723697 2616.58461756 101.82489346 2621.32153998 96 2626 C94.24885082 2627.43609985 92.49886817 2628.87362323 90.75 2630.3125 C88.83467143 2631.87663997 86.91791048 2633.43902699 85 2635 C84.46455566 2635.43650879 83.92911133 2635.87301758 83.37744141 2636.32275391 C73.31321227 2644.50986714 62.99160813 2652.32261523 52.58496094 2660.06787109 C50.02959295 2661.97788075 47.48579084 2663.90227326 44.9453125 2665.83203125 C35.39815276 2673.07258827 25.72334891 2680.03727872 15.79296875 2686.7421875 C11.61224201 2689.56832782 7.4860727 2692.46615434 3.36694336 2695.38110352 C-5.24539031 2701.47138898 -13.97377796 2707.24354955 -22.97070312 2712.74609375 C-25.08205416 2714.05070142 -27.17540987 2715.38055997 -29.265625 2716.71875 C-42.9730459 2725.49042346 -56.95220308 2733.7889187 -71 2742 C-72.38856201 2742.81235107 -72.38856201 2742.81235107 -73.80517578 2743.64111328 C-112.56968044 2766.24586942 -152.78256319 2786.48926004 -193.97998047 2804.26123047 C-197.71607981 2805.87343868 -201.43873407 2807.51435299 -205.16015625 2809.16015625 C-288.23001039 2845.66405867 -376.45731224 2870.65793394 -599 2902 C-599 2901.34 -599 2900.68 -599 2900 C-597.90985596 2899.47269287 -596.81971191 2898.94538574 -595.6965332 2898.40209961 C-565.35788463 2883.71572786 -535.1744136 2868.91864445 -506 2852 C-504.30641357 2851.02160156 -504.30641357 2851.02160156 -502.57861328 2850.0234375 C-478.91898385 2836.34569405 -455.81277601 2821.95720732 -433.0625 2806.8125 C-431.83203949 2805.99412155 -431.83203949 2805.99412155 -430.57672119 2805.15921021 C-415.90432425 2795.38894914 -401.41578691 2785.36936049 -387.25 2774.875 C-386.05709351 2773.99328125 -386.05709351 2773.99328125 -384.84008789 2773.09375 C-378.75459547 2768.58424566 -372.72401902 2764.01082137 -366.74755859 2759.35742188 C-364.76967828 2757.82109684 -362.78531015 2756.29335127 -360.80078125 2754.765625 C-346.42440248 2743.6743393 -332.42140329 2732.15261168 -318.60791016 2720.36962891 C-316.9226888 2718.93414579 -315.23293191 2717.5041151 -313.54296875 2716.07421875 C-306.49793538 2710.09522937 -299.63596115 2703.95802367 -292.875 2697.66015625 C-290.65471043 2695.60578506 -288.41782694 2693.59663351 -286.125 2691.625 C-276.5152255 2683.28978507 -267.35453537 2674.4499695 -258.42089844 2665.39941406 C-255.72569564 2662.68084728 -253.00410159 2660.07425726 -250.0625 2657.625 C-245.5229266 2653.77064523 -241.59670236 2649.35125699 -237.5703125 2644.97680664 C-233.33928709 2640.39338373 -228.99913072 2635.94671784 -224.5625 2631.5625 C-220.51325337 2627.55277428 -216.57717414 2623.52969069 -212.89453125 2619.17578125 C-210.21918072 2616.10326528 -207.4140347 2613.15663841 -204.625 2610.1875 C-199.92273859 2605.16557024 -195.47822791 2600.01669042 -191.17578125 2594.64453125 C-188.869683 2591.84160752 -186.45848469 2589.16996725 -184 2586.5 C-179.58118081 2581.68809567 -175.42766238 2576.71730367 -171.328125 2571.6328125 C-169.82568262 2569.78569216 -168.30483137 2567.95472155 -166.78125 2566.125 C-159.76393604 2557.68826586 -152.95869939 2549.12928278 -146.33203125 2540.3828125 C-142.6583868 2535.53559657 -138.9256376 2530.73506151 -135.1875 2525.9375 C-134.57003906 2525.14480713 -133.95257812 2524.35211426 -133.31640625 2523.53540039 C-131.87818815 2521.6898103 -130.43942933 2519.84464546 -129 2518 C-132.23338367 2518 -133.84121466 2518.6261028 -136.79296875 2519.87890625 C-138.2944043 2520.50684082 -138.2944043 2520.50684082 -139.82617188 2521.14746094 C-140.93541016 2521.61442383 -142.04464844 2522.08138672 -143.1875 2522.5625 C-222.36824227 2555.29197848 -305.74177692 2581.97481743 -389.8682251 2598.57806396 C-392.25454849 2599.05038205 -394.63971934 2599.52830477 -397.02490234 2600.00634766 C-419.13638266 2604.42594371 -441.28315837 2608.51660549 -463.5625 2612 C-464.49826874 2612.14774872 -465.43403748 2612.29549744 -466.39816284 2612.44772339 C-476.92695185 2614.10040154 -487.34441766 2615.48503383 -498 2616 C-498.66 2614.35 -499.32 2612.7 -500 2611 C-492.73619415 2605.64879289 -485.46706248 2600.30606675 -478.125 2595.0625 C-477.27566895 2594.45523071 -477.27566895 2594.45523071 -476.40917969 2593.83569336 C-473.25727743 2591.5885363 -470.09015157 2589.36566485 -466.90625 2587.1640625 C-457.49196197 2580.63251525 -448.52489173 2573.72530762 -439.70849609 2566.40869141 C-437.45651138 2564.55188206 -435.16755027 2562.74386506 -432.875 2560.9375 C-423.29426194 2553.2857696 -414.08356311 2545.19515578 -405.0949707 2536.859375 C-403.1691247 2535.07545338 -401.2331559 2533.30581736 -399.28686523 2531.54394531 C-391.97079048 2524.91589264 -384.91101965 2518.06672326 -377.94360352 2511.07397461 C-376.17512781 2509.30008997 -374.40129956 2507.53168223 -372.62695312 2505.76367188 C-367.39599791 2500.53577704 -362.22985573 2495.30768085 -357.42993164 2489.67504883 C-355.23761208 2487.10692444 -352.92641647 2484.6582399 -350.625 2482.1875 C-346.41046774 2477.62049789 -342.39703387 2472.93720638 -338.5 2468.09375 C-336.60095353 2465.74368 -334.68541304 2463.41356378 -332.75 2461.09375 C-325.39294361 2452.26446443 -318.2873406 2443.30453688 -311.49316406 2434.03466797 C-309.99050641 2431.98706351 -308.47591466 2429.94865615 -306.9609375 2427.91015625 C-292.8204537 2408.74573023 -279.90718358 2388.62098872 -268 2368 C-267.20311768 2366.62038086 -267.20311768 2366.62038086 -266.39013672 2365.21289062 C-259.12614716 2352.56918743 -252.2153668 2339.75374283 -245.5 2326.8125 C-245.16665649 2326.17331635 -244.83331299 2325.53413269 -244.48986816 2324.87557983 C-240.42573301 2317.06726761 -236.69174101 2309.20720485 -233.32348633 2301.07275391 C-232.06674196 2298.15495559 -230.67819329 2295.36656621 -229.1875 2292.5625 C-224.36712701 2283.03327935 -220.77004944 2272.97731575 -217 2263 C-216.45719002 2261.57236801 -215.91421337 2260.14479938 -215.37109375 2258.71728516 C-193.35829721 2200.75243484 -178.24208555 2140.8122123 -171.25228882 2079.17819214 C-171.0000214 2077.00018473 -170.7334157 2074.82439981 -170.4621582 2072.64868164 C-169.28849287 2063.17514713 -168.46259199 2053.72222123 -167.9375 2044.1875 C-167.87687881 2043.11474823 -167.87687881 2043.11474823 -167.81503296 2042.02032471 C-166.2443228 2013.97944338 -165.50959737 1986.06448789 -167 1958 C-167.03782593 1957.25808411 -167.07565186 1956.51616821 -167.11462402 1955.75177002 C-168.97848399 1919.50419532 -171.45357886 1878.63926341 -183 1844 C-183.18473877 1845.07217773 -183.36947754 1846.14435547 -183.55981445 1847.24902344 C-190.57020258 1887.62420953 -199.88737881 1927.15529404 -213 1966 C-213.62406738 1967.85383301 -213.62406738 1967.85383301 -214.26074219 1969.74511719 C-224.85346564 2000.90166857 -237.74468547 2031.39459918 -252.80371094 2060.66064453 C-254.22061805 2063.43142085 -255.61278259 2066.21423999 -257.0078125 2068.99609375 C-265.00685332 2084.81701464 -273.77283247 2099.97327648 -283.140625 2115.01269531 C-284.72043666 2117.5508486 -286.28661838 2120.09634457 -287.84375 2122.6484375 C-308.33819234 2156.10164848 -332.59526556 2187.738047 -358.97265625 2216.7578125 C-360.73967199 2218.71208424 -362.46913529 2220.69059737 -364.1875 2222.6875 C-373.51305783 2233.3422663 -383.37852385 2243.47818132 -393.375 2253.5 C-394.3019165 2254.43150879 -395.22883301 2255.36301758 -396.18383789 2256.32275391 C-400.72986713 2260.85856184 -405.32477485 2265.26306954 -410.19921875 2269.44433594 C-412.97648085 2271.84356507 -415.63611835 2274.36462497 -418.3125 2276.875 C-423.13101711 2281.35742274 -428.07182933 2285.6143573 -433.20703125 2289.734375 C-435.70288243 2291.75898155 -438.14728058 2293.83295214 -440.58129883 2295.93115234 C-447.80736751 2302.14563731 -455.34653506 2307.86201038 -463.01318359 2313.51904297 C-464.86559659 2314.89981677 -466.69591285 2316.30417213 -468.51953125 2317.72265625 C-540.6133586 2373.49372709 -627.11955898 2413.63953656 -813.5 2455.25 C-815.39045044 2455.47671387 -815.39045044 2455.47671387 -817.3190918 2455.70800781 C-821.54274273 2456.1841998 -825.76796518 2456.60650661 -830 2457 C-831.37931702 2457.1308046 -831.37931702 2457.1308046 -832.78649902 2457.26425171 C-851.83590386 2459.01851784 -870.7900117 2459.36322022 -889.90195847 2459.31785583 C-892.2860505 2459.31241777 -894.67013261 2459.31004883 -897.05422974 2459.3079834 C-920.12553729 2459.27684785 -943.02501484 2458.81062543 -965.97314453 2456.22460938 C-968.02271817 2455.99748245 -970.0733464 2455.78556836 -972.125 2455.578125 C-989.04827237 2453.85866486 -1005.80184771 2451.32512155 -1022.5625 2448.4375 C-1023.86391434 2448.21580139 -1023.86391434 2448.21580139 -1025.19161987 2447.98962402 C-1027.67248801 2447.56373964 -1030.15092705 2447.12594609 -1032.62890625 2446.68359375 C-1033.35772003 2446.55865036 -1034.08653381 2446.43370697 -1034.83743286 2446.30497742 C-1039.06006332 2445.53249577 -1042.86820116 2444.36946014 -1046.8575592 2442.79664612 C-1051.03734502 2441.24243274 -1055.35589802 2440.13606027 -1059.65234375 2438.953125 C-1061.78921767 2438.35703528 -1063.9260144 2437.76066881 -1066.06274414 2437.1640625 C-1067.18294952 2436.85243164 -1068.30315491 2436.54080078 -1069.45730591 2436.21972656 C-1089.229911 2430.71025788 -1108.93542421 2425.00760929 -1128.5625 2419 C-1129.55587372 2418.69743286 -1130.54924744 2418.39486572 -1131.57272339 2418.08312988 C-1149.52953756 2412.60555885 -1167.40119505 2406.89228667 -1184.625 2399.375 C-1185.2256427 2399.11387421 -1185.8262854 2398.85274841 -1186.44512939 2398.58370972 C-1210.7123578 2387.98807698 -1234.63375151 2376.07764457 -1257.625 2362.9375 C-1258.60774902 2362.38457275 -1259.59049805 2361.83164551 -1260.60302734 2361.26196289 C-1261.46879395 2360.75141357 -1262.33456055 2360.24086426 -1263.2265625 2359.71484375 C-1263.96471191 2359.28292725 -1264.70286133 2358.85101074 -1265.46337891 2358.40600586 C-1265.97046387 2357.94202393 -1266.47754883 2357.47804199 -1267 2357 C-1267 2355.68 -1267 2354.36 -1267 2353 C-1237.05090796 2335.2851951 -1197.64082447 2331.6836373 -1164 2325 C-1164.75002289 2324.44053429 -1164.75002289 2324.44053429 -1165.51519775 2323.86976624 C-1175.53100138 2316.39009353 -1185.0552486 2308.7353908 -1194 2300 C-1195.07048584 2298.96020996 -1195.07048584 2298.96020996 -1196.16259766 2297.89941406 C-1204.96524146 2289.320394 -1213.54994864 2280.79641984 -1221 2271 C-1222.02237411 2269.69317779 -1223.04590712 2268.38726178 -1224.0703125 2267.08203125 C-1264.07997101 2215.80865656 -1291.28182054 2154.14290346 -1302 2090 C-1302.16371094 2089.05382813 -1302.32742188 2088.10765625 -1302.49609375 2087.1328125 C-1307.34831118 2057.85910407 -1308.0741005 2024.09892532 -1302 1995 C-1301.80132324 1994.01451172 -1301.60264648 1993.02902344 -1301.39794922 1992.01367188 C-1293.50087752 1953.80012641 -1276.98945673 1919.37771925 -1250 1891 C-1249.47841309 1890.44586426 -1248.95682617 1889.89172852 -1248.41943359 1889.32080078 C-1218.26549075 1857.47214301 -1175.57761538 1834.2293587 -1131 1833 C-1130.2584668 1832.97953613 -1129.51693359 1832.95907227 -1128.75292969 1832.93798828 C-1097.75261427 1832.20849817 -1058.17658626 1836.35999889 -1034.1875 1858.0625 C-1023.40315439 1869.57233795 -1020.50157948 1883.64440818 -1020.75 1898.984375 C-1021.09975055 1906.1122913 -1022.41990455 1913.05354264 -1024 1920 C-1024.16097168 1920.70946777 -1024.32194336 1921.41893555 -1024.48779297 1922.14990234 C-1026.64792375 1931.25731252 -1029.80204796 1938.88968949 -1034.61816406 1946.90161133 C-1039.06802676 1954.47103259 -1041.63567269 1962.58083668 -1044 1971 C-1044.26852783 1971.88969482 -1044.53705566 1972.77938965 -1044.8137207 1973.69604492 C-1047.08842784 1981.78066852 -1047.50540508 1989.44001529 -1047.4375 1997.8125 C-1047.43379395 1998.47529968 -1047.43008789 1999.13809937 -1047.42626953 1999.82098389 C-1047.34597142 2009.9084338 -1046.69956756 2018.55012966 -1043 2028 C-1042.37612969 2029.68352988 -1041.7524465 2031.3671291 -1041.12890625 2033.05078125 C-1025.61341616 2073.83793699 -987.81693936 2101.73302999 -949.18359375 2119.359375 C-920.90976772 2131.73625254 -888.09970929 2139.91314378 -857 2138 C-856.30632324 2138.00773437 -855.61264648 2138.01546875 -854.89794922 2138.0234375 C-851.52206047 2137.91597465 -848.97518838 2137.77115912 -846.26831055 2135.63061523 C-844.61020411 2133.70754956 -843.17481652 2131.72680757 -841.75 2129.625 C-841.20480713 2128.86622559 -840.65961426 2128.10745117 -840.09790039 2127.32568359 C-838.36973355 2124.90273275 -836.68372007 2122.45398924 -835 2120 C-833.90093672 2118.4366577 -832.8006904 2116.87414639 -831.69921875 2115.3125 C-807.78725618 2081.13315311 -788.3256363 2044.76385265 -773 2006 C-772.6277832 2005.06816895 -772.25556641 2004.13633789 -771.87207031 2003.17626953 C-764.51619556 1984.58948744 -759.40537483 1965.22077144 -754 1946 C-753.34 1946.33 -752.68 1946.66 -752 1947 C-751.42414829 1949.32015679 -750.97942447 1951.56376017 -750.59765625 1953.91796875 C-750.4141008 1954.99227646 -750.4141008 1954.99227646 -750.22683716 1956.08828735 C-749.82758927 1958.45299017 -749.44376846 1960.81983558 -749.0625 1963.1875 C-748.86365707 1964.40123795 -748.86365707 1964.40123795 -748.66079712 1965.63949585 C-744.85595762 1988.96063962 -742.53319356 2012.36619524 -742 2036 C-741.96712891 2037.18311768 -741.96712891 2037.18311768 -741.93359375 2038.39013672 C-741.44944182 2057.59886455 -742.91604803 2076.83048237 -744 2096 C-737.5174879 2091.23794622 -731.11829645 2086.52111122 -725.3125 2080.9375 C-724.22340475 2079.90936279 -723.13355833 2078.88202073 -722.04296875 2077.85546875 C-721.52653809 2077.36739746 -721.01010742 2076.87932617 -720.47802734 2076.37646484 C-718.40650575 2074.44728764 -716.26659235 2072.60071393 -714.125 2070.75 C-710.72070009 2067.7418368 -707.7172464 2064.56735361 -704.7890625 2061.09765625 C-702.87853862 2058.85758786 -700.88064776 2056.71765968 -698.875 2054.5625 C-692.43728677 2047.42288959 -686.73159705 2039.70825859 -681 2032 C-680.54979492 2031.39639648 -680.09958984 2030.79279297 -679.63574219 2030.17089844 C-657.11713559 1999.81671818 -637.43024292 1964.88535325 -624.52001953 1929.26611328 C-623.7109375 1927.1640625 -623.7109375 1927.1640625 -622 1924 C-606.95249104 1919.48607008 -587.80335694 1922.76770866 -573 1927 C-572.24138672 1927.21430664 -571.48277344 1927.42861328 -570.70117188 1927.64941406 C-560.14730724 1930.71387095 -550.41413729 1934.88089337 -540.73974609 1940.07128906 C-539.18798937 1940.89964755 -537.62033053 1941.69805793 -536.05078125 1942.4921875 C-504.42886191 1958.83402611 -479.08778798 1986.58082147 -467 2020 C-476.69238166 1929.99931315 -501.86397282 1840.0474896 -540 1758 C-540.6268059 1756.64224724 -541.25325456 1755.28432952 -541.87939453 1753.92626953 C-563.11065712 1707.92596463 -587.49819894 1663.43761528 -616.64794922 1621.92871094 C-618.03498607 1619.9500921 -619.41051094 1617.96380592 -620.78515625 1615.9765625 C-640.00765465 1588.31993578 -661.02905757 1561.40711601 -683.734375 1536.51171875 C-685.58359997 1534.46162969 -687.40140975 1532.39184328 -689.21166992 1530.30761719 C-692.69547726 1526.32427324 -696.25765948 1522.42489447 -699.87890625 1518.56640625 C-700.51985733 1517.88340958 -701.16080841 1517.2004129 -701.82118225 1516.49671936 C-708.67951068 1509.22611427 -715.71368161 1502.13488549 -722.79125977 1495.07836914 C-724.96424335 1492.91082358 -727.13172363 1490.737875 -729.29882812 1488.56445312 C-730.70801229 1487.15592873 -732.11750606 1485.747714 -733.52734375 1484.33984375 C-734.16083237 1483.7043309 -734.79432098 1483.06881805 -735.44700623 1482.41404724 C-739.23842198 1478.6421702 -743.14301142 1475.05451424 -747.19647217 1471.56541443 C-749.97005794 1469.15801538 -752.63422223 1466.63717975 -755.3125 1464.125 C-760.1064914 1459.66495644 -765.02510996 1455.43690447 -770.1328125 1451.3359375 C-773.41579697 1448.66124443 -776.61239704 1445.89765875 -779.8125 1443.125 C-786.04510588 1437.75282168 -792.42158573 1432.60686277 -798.94042969 1427.58691406 C-800.41460406 1426.45105188 -801.88633513 1425.31201588 -803.35644531 1424.17089844 C-814.23376367 1415.73225215 -825.24942745 1407.62256094 -836.671875 1399.9375 C-839.85790871 1397.79129453 -842.98181665 1395.58130435 -846.0769043 1393.30664062 C-856.62856678 1385.56523598 -867.8483632 1378.8319144 -879 1372 C-879.86963379 1371.46584473 -880.73926758 1370.93168945 -881.63525391 1370.38134766 C-956.26913497 1324.65982328 -1037.3643967 1290.24414439 -1285 1243 C-1285.95392639 1242.93694672 -1285.95392639 1242.93694672 -1286.92712402 1242.87261963 C-1304.22565613 1241.74410166 -1321.54749685 1241.75449362 -1338.875 1241.75 C-1339.65744583 1241.74955814 -1340.43989166 1241.74911629 -1341.24604797 1241.74866104 C-1368.26273388 1241.74068457 -1395.08960828 1242.41334887 -1422 1245 C-1423.30677704 1245.12375 -1423.30677704 1245.12375 -1424.63995361 1245.25 C-1464.89607799 1249.09633265 -1504.99224148 1255.42971303 -1544.40771484 1264.484375 C-1547 1265 -1547 1265 -1550 1265 C-1550.40943848 1266.09634766 -1550.40943848 1266.09634766 -1550.82714844 1267.21484375 C-1551.94695784 1269.87404144 -1553.21420644 1272.13526408 -1554.765625 1274.5625 C-1555.31871338 1275.43100586 -1555.87180176 1276.29951172 -1556.44165039 1277.19433594 C-1557.03840576 1278.12020508 -1557.63516113 1279.04607422 -1558.25 1280 C-1559.18283813 1281.4545459 -1559.18283813 1281.4545459 -1560.13452148 1282.93847656 C-1570.64852485 1299.27918311 -1581.41823484 1315.39363872 -1593 1331 C-1593.4429541 1331.59748047 -1593.8859082 1332.19496094 -1594.34228516 1332.81054688 C-1622.64810929 1370.78363097 -1622.64810929 1370.78363097 -1637.75 1375.0625 C-1641 1375 -1641 1375 -1643.09765625 1373.375 C-1645.35623532 1370.55525447 -1645.94672006 1368.46155719 -1646.6875 1364.9375 C-1646.91824219 1363.89464844 -1647.14898438 1362.85179687 -1647.38671875 1361.77734375 C-1649.35060901 1349.68128082 -1649.23740936 1337.53510216 -1649.25 1325.3125 C-1649.25233643 1324.27818848 -1649.25467285 1323.24387695 -1649.25708008 1322.17822266 C-1649.27514288 1300.72290002 -1648.09677247 1279.38607059 -1646.45733643 1257.99882507 C-1646.08419438 1252.98228009 -1645.93931936 1248.03071376 -1646 1243 C-1646.3403125 1243.54599854 -1646.680625 1244.09199707 -1647.03125 1244.65454102 C-1677.06620321 1292.69748562 -1677.06620321 1292.69748562 -1695.0625 1311.88671875 C-1697.07248941 1314.02452943 -1697.07248941 1314.02452943 -1699.01171875 1316.56640625 C-1702.83013649 1321.24002954 -1706.97699785 1324.43621251 -1712.8125 1326.0625 C-1716 1326 -1716 1326 -1717.59765625 1324.84375 C-1719.41427901 1322.45532118 -1719.93295629 1320.35396992 -1720.625 1317.4375 C-1720.86476563 1316.46683594 -1721.10453125 1315.49617188 -1721.3515625 1314.49609375 C-1722.90095699 1306.14243069 -1723.14958607 1297.82922483 -1723.1328125 1289.3515625 C-1723.13424759 1287.71264542 -1723.13424759 1287.71264542 -1723.13571167 1286.0406189 C-1723.13638879 1283.73622581 -1723.13456735 1281.43183077 -1723.13037109 1279.12744141 C-1723.12506832 1275.6695506 -1723.13030521 1272.21179279 -1723.13671875 1268.75390625 C-1723.14029029 1255.47134791 -1722.82634581 1242.25729728 -1722 1229 C-1723.258125 1228.814375 -1724.51625 1228.62875 -1725.8125 1228.4375 C-1751.46546036 1223.25618174 -1775.8228435 1209.2208513 -1796 1193 C-1796.87269531 1192.32066406 -1797.74539063 1191.64132812 -1798.64453125 1190.94140625 C-1831.2658962 1165.4094088 -1854.99900465 1128.00716486 -1864.0625 1087.5078125 C-1864.22709717 1086.77715576 -1864.39169434 1086.04649902 -1864.5612793 1085.29370117 C-1865 1083 -1865 1083 -1865.26098633 1080.38793945 C-1865.82055532 1075.37024425 -1865.82055532 1075.37024425 -1868.69677734 1071.41796875 C-1870.97222707 1070.0642929 -1873.25649864 1068.98588996 -1875.6875 1067.9375 C-1877.42484951 1067.10635147 -1879.16051095 1066.27166584 -1880.89453125 1065.43359375 C-1881.75900879 1065.02737793 -1882.62348633 1064.62116211 -1883.51416016 1064.20263672 C-1897.7924495 1057.29487269 -1910.23610583 1047.69576363 -1921.75805664 1036.89941406 C-1925.28415018 1033.60487612 -1928.95361563 1030.64056263 -1932.796875 1027.73046875 C-1936.14604838 1025.0998237 -1939.27111059 1022.24378762 -1942.40234375 1019.359375 C-1944.13092724 1017.7893533 -1945.89471159 1016.25722056 -1947.69140625 1014.765625 C-1955.82304208 1007.87166348 -1961.32292324 999.94604454 -1967 991 C-1967.67160156 989.97777344 -1968.34320312 988.95554687 -1969.03515625 987.90234375 C-1979.63728962 970.96223175 -1984.6690679 950.09805209 -1982.26220703 930.24023438 C-1981.95633203 927.62691126 -1981.7122214 925.01012303 -1981.46484375 922.390625 C-1979.06142827 898.43442908 -1973.19979938 876.2274016 -1964 854 C-1963.68869141 853.23284668 -1963.37738281 852.46569336 -1963.05664062 851.67529297 C-1951.30946186 823.15661781 -1930.891385 798.30423276 -1908 778 C-1907.31550781 777.36578125 -1906.63101562 776.7315625 -1905.92578125 776.078125 C-1900.58036116 771.1921645 -1894.6947267 767.10730697 -1888.67041016 763.10986328 C-1887.10983981 762.07298038 -1885.56032328 761.01951429 -1884.01171875 759.96484375 C-1874.2768813 753.61384085 -1863.76274901 749.2960206 -1853 745 C-1852.27296875 744.70319336 -1851.5459375 744.40638672 -1850.796875 744.10058594 C-1835.29533776 737.83636741 -1818.76171272 734.70001837 -1802.16894531 733.04736328 C-1785.13051989 731.34798544 -1768.91606529 727.06361481 -1752.41864014 722.64691162 C-1749.96242312 721.98994934 -1747.50505057 721.33747397 -1745.04736328 720.68603516 C-1734.34942749 717.84768291 -1723.65761084 714.9866538 -1713 712 C-1712.28912231 711.80101105 -1711.57824463 711.60202209 -1710.8458252 711.39700317 C-1700.5975239 708.50875879 -1690.57921852 705.21438059 -1680.625 701.4375 C-1679.94401245 701.18055359 -1679.2630249 700.92360718 -1678.56140137 700.65887451 C-1664.45726739 695.3225833 -1650.64274982 689.43018852 -1637 683 C-1635.8557959 682.46149414 -1634.7115918 681.92298828 -1633.53271484 681.36816406 C-1609.76061286 670.07386072 -1587.54297637 656.58017019 -1566.03857422 641.43457031 C-1564.12744231 640.08968276 -1562.20763251 638.75828273 -1560.28515625 637.4296875 C-1542.47323585 625.02760634 -1526.02070228 610.61007441 -1510 596 C-1509.05640625 595.14921875 -1508.1128125 594.2984375 -1507.140625 593.421875 C-1498.64987481 585.74128446 -1490.10412909 577.92852714 -1482.6875 569.1875 C-1479.18550582 565.06292908 -1475.3411456 561.30453678 -1471.5 557.5 C-1467.09254962 553.13033841 -1462.75979383 548.77093573 -1458.7421875 544.03515625 C-1456.33767924 541.22630243 -1453.86152799 538.48625044 -1451.375 535.75 C-1450.91899414 535.24186768 -1450.46298828 534.73373535 -1449.99316406 534.21020508 C-1447.19766518 531.14216028 -1444.25332455 528.56470418 -1441 526 C-1440.00724247 524.92667838 -1439.04784021 523.82149857 -1438.125 522.6875 C-1430.40589016 513.66207926 -1421.75761613 505.13143431 -1412.6875 497.46875 C-1410.87059567 495.88737031 -1409.1878872 494.21802804 -1407.5 492.5 C-1404.5117773 489.46455933 -1401.38552938 486.65484449 -1398.15625 483.87890625 C-1395.79065628 481.81758274 -1393.49373824 479.6899318 -1391.1875 477.5625 C-1386.9702795 473.75028696 -1382.55138322 470.44284419 -1377.9140625 467.1640625 C-1374.66087622 464.7481574 -1371.62032949 462.15489841 -1368.5625 459.5 C-1363.57692993 455.19263849 -1358.41937733 451.45029815 -1352.87109375 447.87890625 C-1350.14316801 446.09369226 -1347.54446342 444.20622679 -1344.9375 442.25 C-1323.72946218 426.72970984 -1300.18325615 414.49076642 -1276.875 402.48828125 C-1273.99228736 400.99600745 -1271.1198657 399.4855676 -1268.25 397.96875 C-1244.30537961 385.32678832 -1219.7199065 374.08819432 -1195.05810547 362.93139648 C-1193.10456854 362.04732254 -1191.1518426 361.16147892 -1189.19921875 360.27539062 C-1185.84530463 358.75743942 -1182.48646382 357.25114543 -1179.125 355.75 C-1178.17705566 355.32074219 -1177.22911133 354.89148438 -1176.25244141 354.44921875 C-1143.96876602 340.15962893 -1106.35306939 334.32906892 -1072 327 C-1071.19101257 326.82704407 -1070.38202515 326.65408813 -1069.54852295 326.47589111 C-1013.30057862 314.51116946 -955.52262745 307.40838434 -898.25 302.8125 C-897.27289062 302.73332336 -896.29578125 302.65414673 -895.2890625 302.5725708 C-887.86357653 301.97940603 -880.43436122 301.46835343 -873 301 C-872.31841702 300.95674465 -871.63683403 300.9134893 -870.93459702 300.86892319 C-843.28204266 299.12797726 -815.68990221 298.63432724 -787.98641968 298.68234634 C-784.76047571 298.68758447 -781.53454143 298.68949927 -778.30859375 298.69100952 C-746.92214153 298.71656185 -715.71099122 299.23795709 -684.41491699 301.80725098 C-681.45359766 302.04361165 -678.4906676 302.24724949 -675.52674866 302.4478302 C-637.22170425 305.06812418 -598.80534203 310.70383045 -560.875 316.5625 C-559.66038589 316.74794373 -559.66038589 316.74794373 -558.42123413 316.93713379 C-526.9009784 321.78709085 -495.81599039 328.40223309 -464.8499527 335.97432709 C-462.13698767 336.63734464 -459.42339871 337.29775479 -456.70965576 337.95758057 C-444.46439247 340.93680362 -432.22837487 343.95222004 -420 347 C-419.30238304 347.1736911 -418.60476608 347.3473822 -417.88600922 347.52633667 C-391.23017797 354.16766743 -365.45984116 361.77916196 -339.96337891 372.01904297 C-334.50759488 374.20577867 -329.02668158 376.32586962 -323.54296875 378.44140625 C-321.51667918 379.22346029 -319.49039342 380.00552422 -317.46411133 380.78759766 C-316.44217682 381.18199036 -315.42024231 381.57638306 -314.36734009 381.98272705 C-309.14571619 384.00075237 -303.92832835 386.02965469 -298.7109375 388.05859375 C-296.59473392 388.88136658 -294.47852296 389.70412044 -292.36230469 390.52685547 C-291.312323 390.93506531 -290.26234131 391.34327515 -289.18054199 391.76385498 C-279.74705346 395.43026149 -270.31104669 399.09018352 -260.875 402.75 C-259.86563385 403.14155273 -258.8562677 403.53310547 -257.8163147 403.93652344 C-237.89290713 411.66435175 -217.95106659 419.34389334 -198 427 C-198.7396779 423.85380653 -199.77651907 420.93303737 -200.9675293 417.92675781 C-204.8144775 408.14674722 -207.69409608 398.24846184 -210 388 C-210.16661133 387.28585937 -210.33322266 386.57171875 -210.50488281 385.8359375 C-216.00281419 361.15785214 -215.51570697 331.36460852 -209 307 C-208.73687012 305.96584961 -208.47374023 304.93169922 -208.20263672 303.86621094 C-202.72426813 282.64102059 -195.18159303 261.72077974 -182 244 C-181.25492188 242.91332031 -180.50984375 241.82664062 -179.7421875 240.70703125 C-167.74057251 223.20804454 -153.23134395 207.46691705 -136 195 C-135.19296631 194.40082764 -135.19296631 194.40082764 -134.36962891 193.78955078 C-124.3945432 186.39593692 -114.00635686 179.90724391 -103.32592773 173.58374023 C-86.26714923 163.45724545 -70.54693255 152.53706285 -56 139 C-55.33355469 138.38769531 -54.66710938 137.77539062 -53.98046875 137.14453125 C-22.83771584 107.39717664 -3.7520884 64.13432602 -1.875 21.4375 C-1.76623821 19.15761115 -1.65418038 16.87794509 -1.5383606 14.59840393 C-1.43577005 12.55476041 -1.34235146 10.51066242 -1.24951172 8.46655273 C-1.03924961 5.54530839 -0.66177545 2.84686373 0 0 Z " fill="#E0224D" transform="translate(2053,93)"/>
<path d="M0 0 C0.69158203 0.31775391 1.38316406 0.63550781 2.09570312 0.96289062 C13.56513815 6.35214323 23.26649134 13.38164699 33.04345703 21.39746094 C34.7230352 22.77314738 36.42039593 24.12707262 38.12109375 25.4765625 C64.29201686 46.36772028 88.289587 73.354911 92.22143555 107.94824219 C93.15989978 118.26778047 92.61659871 125.47953149 85.87890625 133.8515625 C84.92721776 134.9082534 83.96716667 135.9574573 83 137 C82.48034668 137.57202148 81.96069336 138.14404297 81.42529297 138.73339844 C73.97810501 146.82269949 65.85471321 153.85274171 57.07275391 160.44091797 C54.70855933 162.21921556 52.35977982 164.01686219 50.01171875 165.81640625 C42.50262701 171.56528603 34.97310859 177.28531774 27.38964844 182.93579102 C20.43945551 188.11643046 13.63675207 193.41909485 7 199 C5.93757725 199.8750938 4.8750732 200.75008889 3.8125 201.625 C-10.63932235 213.6400932 -23.94613164 226.77083159 -35 242 C-35.76441406 243.03125 -36.52882813 244.0625 -37.31640625 245.125 C-61.75664321 279.12880795 -72.22867103 318.90679495 -72.1875 360.4375 C-72.18858765 361.55893906 -72.18858765 361.55893906 -72.18969727 362.70303345 C-72.18856744 373.26623951 -71.78328956 383.64722988 -70.4375 394.13671875 C-70.01879712 397.83401469 -69.92219511 401.28967937 -70 405 C-73.32085063 401.98158074 -75.30976138 398.96833099 -77.390625 395.00390625 C-77.69648529 394.42293686 -78.00234558 393.84196747 -78.31747437 393.24339294 C-79.30556202 391.35503407 -80.27951526 389.45996068 -81.25 387.5625 C-81.75089142 386.5878479 -81.75089142 386.5878479 -82.26190186 385.59350586 C-100.06901766 350.81506829 -108.91950013 313.0143897 -102 274 C-101.86529297 273.2363916 -101.73058594 272.4727832 -101.59179688 271.68603516 C-96.90260755 246.57045296 -85.73263841 223.40172578 -73.92089844 200.94873047 C-55.28954537 165.42066755 -54.52872399 123.27544465 -66.203125 85.34765625 C-74.40029597 60.15014482 -87.63122904 38.00400223 -106 19 C-106.81210938 18.13632813 -107.62421875 17.27265625 -108.4609375 16.3828125 C-115.39471677 9.17976025 -123.18419579 2.34467766 -131.88671875 -2.66015625 C-132.58410156 -3.10230469 -133.28148437 -3.54445313 -134 -4 C-134 -4.66 -134 -5.32 -134 -6 C-88.88140893 -20.82538589 -43.41858517 -20.01101616 0 0 Z " fill="#E0224D" transform="translate(1885,66)"/>
</svg>
